# xmcd CD database file
#
# Track frame offsets:
#	150
#	14373
#	28045
#	41522
#	53370
#	65920
#	79156
#	90510
#	99992
#	111349
#	124761
#	137673
#	151280
#	163789
#	177069
#	190233
#	201704
#	212012
#	224224
#	233375
#	249178
#	260974
#	273312
#	284751
#	297838
#
# Disc length: 4127 seconds
#
# Revision: 0
# Processed by: cddbd v1.5.2PL0 Copyright (c) Steve Scherf et al.
# Submitted via: CDex 1.51
#
DISCID=77101d19
DTITLE=Billie Holiday - Kind Of Holiday [CD2] - Early Great Vol.2
DYEAR=2009
DGENRE=Jazz
TTITLE0=Mean To Me (Ahlert)
TTITLE1=Foolin' Myself (Laurence)
TTITLE2=I'll Never Be The Same (Kahn)
TTITLE3=Me Myself And I (Gordon/Roberts/Kaufman)
TTITLE4=Without Your Love (Stryker/Lange)
TTITLE5=Getting Some Fun Out Of Life (Burke/Leslie)
TTITLE6=Who Wants Love (Waxman/Kahn)
TTITLE7=Trav'lin All Alone (Johnson)
TTITLE8=He's Funny That Way (Whiting/Morat)
TTITLE9=Nice Work If You Can Get It (Gershwin)
TTITLE10=My Man (Yvain/Charles/Willemetz/Pollock)
TTITLE11=Can't Help Lovin' Dat Man (Kern/Hammerstein)
TTITLE12=When You're Smiling (Fisher/Goodwin/Shay)
TTITLE13=If Dreams Corne True (Sampson/Mills/Goodman)
TTITLE14=On The Sentimental Side (Monaco/Burke)
TTITLE15=Back In Your Own Back Yard (Dreyer/Jolson/Rose)
TTITLE16=When A Woman Loves A Man (Mercer/Jenkins/Hanighen)
TTITLE17=You Go To My Head (Coots/Gillespie)
TTITLE18=I'm Gonna Lock My Heart(And Throw Away The Key) (Shand/Eaton)
TTITLE19=Any Old Time (Shaw)
TTITLE20=The Very Thought Of You (Noble)
TTITLE21=I Can't Get Started (Duke/Gershwin)
TTITLE22=I've Got A Date With A Dream (Revel/Gordon)
TTITLE23=What Shall I Say (Tinturin)
TTITLE24=Sugar (Pinkard/Alexander/Mitchell)
EXTD=YEAR: 2009
EXTT0=
EXTT1=
EXTT2=
EXTT3=
EXTT4=
EXTT5=
EXTT6=
EXTT7=
EXTT8=
EXTT9=
EXTT10=
EXTT11=
EXTT12=
EXTT13=
EXTT14=
EXTT15=
EXTT16=
EXTT17=
EXTT18=
EXTT19=
EXTT20=
EXTT21=
EXTT22=
EXTT23=
EXTT24=
PLAYORDER=
